<svg width="297" height="67" viewBox="0 0 297 67" fill="none" xmlns="http://www.w3.org/2000/svg">
<path d="M69.6914 49.5508C67.0794 47.957 65.0651 45.7878 63.6484 43.043C62.1875 40.2539 61.457 37.0664 61.457 33.4805C61.457 29.9388 62.1875 26.7734 63.6484 23.9844C65.1094 21.1953 67.1237 19.0039 69.6914 17.4102C72.3034 15.8164 75.1589 15.0195 78.2578 15.0195C80.6042 15.0195 82.6849 15.5286 84.5 16.5469C86.3151 17.5651 87.6875 18.8268 88.6172 20.332H89.2148L88.6172 15.4844V2.13672H97.5156V50.8125H89.2148V46.6953H88.6172C87.6875 48.2448 86.3372 49.4844 84.5664 50.4141C82.7513 51.388 80.6484 51.875 78.2578 51.875C75.0703 51.875 72.2148 51.1003 69.6914 49.5508ZM79.7188 43.6406C81.4453 43.6406 83.0169 43.2201 84.4336 42.3789C85.8503 41.5378 87.0013 40.3424 87.8867 38.793C88.7721 37.2435 89.2148 35.4727 89.2148 33.4805C89.2148 31.4883 88.7721 29.7174 87.8867 28.168C87.0013 26.6185 85.8503 25.4232 84.4336 24.582C83.0169 23.7409 81.4453 23.3203 79.7188 23.3203C78.0807 23.3203 76.5534 23.7409 75.1367 24.582C73.6315 25.4674 72.4583 26.6628 71.6172 28.168C70.776 29.6732 70.3555 31.444 70.3555 33.4805C70.3555 35.5169 70.776 37.2878 71.6172 38.793C72.4583 40.2982 73.6315 41.4935 75.1367 42.3789C76.5534 43.2201 78.0807 43.6406 79.7188 43.6406Z" fill="white"/>
<path d="M103.131 10.6367C101.98 9.48568 101.404 8.11328 101.404 6.51953C101.404 4.97005 101.98 3.61979 103.131 2.46875C104.238 1.36198 105.588 0.808594 107.182 0.808594C108.775 0.808594 110.126 1.36198 111.232 2.46875C112.339 3.57552 112.893 4.92578 112.893 6.51953C112.893 8.15755 112.339 9.52995 111.232 10.6367C110.126 11.7435 108.775 12.2969 107.182 12.2969C105.588 12.2969 104.238 11.7435 103.131 10.6367ZM102.732 16.1484H111.631V50.8125H102.732V16.1484Z" fill="white"/>
<path d="M132.387 66.6172C128.004 66.6172 124.352 65.6211 121.43 63.6289C118.508 61.6367 116.56 59.2682 115.586 56.5234L123.953 53.1367C124.706 54.8633 125.813 56.2135 127.274 57.1875C128.823 58.2057 130.527 58.7148 132.387 58.7148C135.22 58.7148 137.456 57.8516 139.094 56.125C140.732 54.4427 141.551 51.9857 141.551 48.7539V46.0312H141.02C139.869 47.6693 138.452 48.8646 136.77 49.6172C134.999 50.4141 132.985 50.8125 130.727 50.8125C127.849 50.8125 125.171 50.082 122.692 48.6211C120.301 47.2044 118.331 45.1237 116.781 42.3789C115.276 39.6784 114.524 36.5352 114.524 32.9492C114.524 29.3633 115.276 26.2201 116.781 23.5195C118.331 20.7747 120.301 18.694 122.692 17.2773C125.215 15.7721 127.893 15.0195 130.727 15.0195C132.852 15.0195 134.866 15.4401 136.77 16.2812C138.496 17.0339 139.913 18.207 141.02 19.8008H141.551V16.1484H150.117V48.4219C150.117 52.2292 149.409 55.4609 147.992 58.1172C146.576 60.7734 144.495 62.8542 141.75 64.3594C139.005 65.8646 135.884 66.6172 132.387 66.6172ZM132.52 42.7109C134.999 42.7109 137.124 41.8477 138.895 40.1211C140.666 38.3945 141.551 36.0039 141.551 32.9492C141.551 29.8503 140.688 27.4375 138.961 25.7109C137.235 23.9844 135.087 23.1211 132.52 23.1211C130.041 23.1211 127.893 23.9844 126.078 25.7109C124.307 27.4375 123.422 29.8503 123.422 32.9492C123.422 36.0039 124.307 38.3945 126.078 40.1211C127.893 41.8477 130.041 42.7109 132.52 42.7109Z" fill="white"/>
<path d="M155.666 10.6367C154.515 9.48568 153.94 8.11328 153.94 6.51953C153.94 4.97005 154.515 3.61979 155.666 2.46875C156.773 1.36198 158.123 0.808594 159.717 0.808594C161.311 0.808594 162.661 1.36198 163.768 2.46875C164.875 3.57552 165.428 4.92578 165.428 6.51953C165.428 8.15755 164.875 9.52995 163.768 10.6367C162.661 11.7435 161.311 12.2969 159.717 12.2969C158.123 12.2969 156.773 11.7435 155.666 10.6367ZM155.268 16.1484H164.166V50.8125H155.268V16.1484Z" fill="white"/>
<path d="M169.857 16.1484H178.158V20.4648H178.756C179.862 18.7383 181.323 17.4102 183.138 16.4805C185.042 15.5065 187.101 15.0195 189.314 15.0195C193.476 15.0195 196.663 16.3034 198.877 18.8711C201.046 21.3503 202.131 24.8034 202.131 29.2305V50.8125H193.232V30.3594C193.232 28.1458 192.657 26.4193 191.506 25.1797C190.355 23.9401 188.783 23.3203 186.791 23.3203C184.356 23.3203 182.408 24.25 180.947 26.1094C179.486 27.9688 178.756 30.3151 178.756 33.1484V50.8125H169.857V16.1484Z" fill="#CCCCCC"/>
<path d="M213.39 49.5508C210.646 48.0013 208.476 45.8099 206.883 42.9766C205.333 40.276 204.558 37.1328 204.558 33.5469C204.558 30.2708 205.333 27.194 206.883 24.3164C208.388 21.4388 210.513 19.181 213.258 17.543C216.002 15.8607 219.035 15.0195 222.355 15.0195C225.897 15.0195 228.974 15.7943 231.586 17.3438C234.198 18.8932 236.168 20.9961 237.496 23.6523C238.824 26.3086 239.488 29.2969 239.488 32.6172C239.488 33.6797 239.422 34.6758 239.289 35.6055H213.258C213.7 38.2617 214.807 40.3424 216.578 41.8477C218.305 43.3086 220.385 44.0391 222.82 44.0391C224.857 44.0391 226.627 43.5964 228.133 42.7109C229.549 41.8698 230.7 40.6745 231.586 39.125L238.824 42.6445C235.327 48.7982 229.948 51.875 222.687 51.875C219.19 51.875 216.091 51.1003 213.39 49.5508ZM230.922 29.2305C230.833 28.168 230.435 27.1055 229.726 26.043C228.974 24.9805 228 24.0951 226.805 23.3867C225.565 22.6784 224.104 22.3242 222.422 22.3242C220.297 22.3242 218.482 22.944 216.976 24.1836C215.427 25.4674 214.32 27.1497 213.656 29.2305H230.922Z" fill="#CCCCCC"/>
<path d="M250.217 33.2148L238.197 16.1484H248.756L255.33 26.043H255.795L261.971 16.1484H272.861L260.643 33.2148L272.861 50.8125H262.303L255.596 40.6523H255.197L248.689 50.8125H238.131L250.217 33.2148Z" fill="#CCCCCC"/>
<path d="M289.035 51.3438C287.309 51.3438 285.715 51.0781 284.254 50.5469C282.793 50.0156 281.62 49.3073 280.734 48.4219C278.609 46.3854 277.547 43.4857 277.547 39.7227V23.7188H271.504V16.1484H277.547V6.32031H286.445V16.1484H294.945V23.7188H286.445V38.1289C286.445 39.8997 286.822 41.1615 287.574 41.9141C288.238 42.6224 289.345 42.9766 290.895 42.9766C291.647 42.9766 292.355 42.8659 293.02 42.6445C293.374 42.5117 294.104 42.1354 295.211 41.5156V50.2148C293.396 50.9674 291.337 51.3438 289.035 51.3438Z" fill="#CCCCCC"/>
<rect x="1" y="6.8125" width="54" height="54" fill="white"/>
<path d="M21.64 29.6545L25.84 33.8125L13.84 45.6925L9.64 41.5345L21.64 29.6545Z" fill="black"/>
<path d="M25.84 33.8125L21.64 37.9705L9.64 26.0905L13.84 21.9325L25.84 33.8125Z" fill="black"/>
<path d="M32.4728 38.9414C31.5679 38.3853 30.87 37.6283 30.3792 36.6705C29.8731 35.6972 29.62 34.5849 29.62 33.3336C29.62 32.0977 29.8731 30.9931 30.3792 30.0199C30.8854 29.0466 31.5832 28.2819 32.4728 27.7257C33.3777 27.1696 34.367 26.8915 35.4407 26.8915C36.2536 26.8915 36.9744 27.0692 37.6033 27.4245C38.2321 27.7798 38.7076 28.2201 39.0297 28.7453H39.2368L39.0297 27.0537V22.396H42.1126V39.3817H39.2368V37.945H39.0297C38.7076 38.4857 38.2398 38.9183 37.6263 39.2427C36.9975 39.5826 36.2689 39.7525 35.4407 39.7525C34.3364 39.7525 33.3471 39.4821 32.4728 38.9414ZM35.9468 36.879C36.545 36.879 37.0895 36.7323 37.5803 36.4388C38.0711 36.1452 38.4699 35.7281 38.7766 35.1874C39.0834 34.6467 39.2368 34.0288 39.2368 33.3336C39.2368 32.6384 39.0834 32.0205 38.7766 31.4798C38.4699 30.939 38.0711 30.5219 37.5803 30.2284C37.0895 29.9349 36.545 29.7881 35.9468 29.7881C35.3793 29.7881 34.8502 29.9349 34.3594 30.2284C33.8379 30.5374 33.4314 30.9545 33.14 31.4798C32.8486 32.005 32.7029 32.623 32.7029 33.3336C32.7029 34.0442 32.8486 34.6622 33.14 35.1874C33.4314 35.7127 33.8379 36.1298 34.3594 36.4388C34.8502 36.7323 35.3793 36.879 35.9468 36.879Z" fill="black"/>
<path d="M44.058 25.3621C43.6592 24.9604 43.4599 24.4815 43.4599 23.9254C43.4599 23.3847 43.6592 22.9135 44.058 22.5118C44.4415 22.1256 44.9093 21.9325 45.4614 21.9325C46.0136 21.9325 46.4814 22.1256 46.8648 22.5118C47.2483 22.898 47.44 23.3692 47.44 23.9254C47.44 24.497 47.2483 24.9759 46.8648 25.3621C46.4814 25.7483 46.0136 25.9414 45.4614 25.9414C44.9093 25.9414 44.4415 25.7483 44.058 25.3621ZM43.92 27.2854H47.0029V39.3817H43.92V27.2854Z" fill="black"/>
<rect x="29.62" y="42.9925" width="17.82" height="2.7" fill="white"/>
</svg>
