<svg width="190" height="66" viewBox="0 0 190 66" fill="none" xmlns="http://www.w3.org/2000/svg">
<path d="M102.1 31.0882L92.3971 17.3113H100.921L106.228 25.2987H106.603L111.588 17.3113H120.38L110.516 31.0882L120.38 45.294H111.856L106.442 37.0922H106.12L100.867 45.294H92.3435L102.1 31.0882Z" fill="#BF6BF7"/>
<path d="M65.6472 44.2753C63.5387 42.9887 61.9126 41.2376 60.769 39.0218C59.5897 36.7703 59 34.1972 59 31.3024C59 28.4434 59.5897 25.8881 60.769 23.6366C61.9484 21.3852 63.5744 19.6161 65.6472 18.3296C67.7558 17.043 70.0609 16.3997 72.5625 16.3997C74.4566 16.3997 76.1363 16.8107 77.6016 17.6327C79.0668 18.4547 80.1747 19.4732 80.9252 20.6883H81.4077L80.9252 16.775V6H88.1085V45.2938H81.4077V41.9702H80.9252C80.1747 43.221 79.0847 44.2217 77.6552 44.9722C76.1899 45.7584 74.4924 46.1515 72.5625 46.1515C69.9894 46.1515 67.6843 45.5261 65.6472 44.2753ZM73.7419 39.5043C75.1357 39.5043 76.4044 39.1648 77.548 38.4857C78.6916 37.8067 79.6208 36.8418 80.3355 35.591C81.0503 34.3401 81.4077 32.9106 81.4077 31.3024C81.4077 29.6942 81.0503 28.2647 80.3355 27.0139C79.6208 25.7631 78.6916 24.7981 77.548 24.1191C76.4044 23.4401 75.1357 23.1006 73.7419 23.1006C72.4196 23.1006 71.1866 23.4401 70.043 24.1191C68.8279 24.8339 67.8809 25.7988 67.2018 27.0139C66.5228 28.229 66.1833 29.6585 66.1833 31.3024C66.1833 32.9464 66.5228 34.3759 67.2018 35.591C67.8809 36.8061 68.8279 37.771 70.043 38.4857C71.1866 39.1648 72.4196 39.5043 73.7419 39.5043Z" fill="#BF6BF7"/>
<path d="M159.341 17.1931H166.43V20.738H166.937C167.725 19.4626 168.888 18.3935 170.426 17.5307C171.963 16.668 173.727 16.2366 175.715 16.2366C178.341 16.2366 180.76 16.9118 182.973 18.2622C185.074 19.5751 186.762 21.432 188.037 23.8327C189.275 26.196 189.894 28.8781 189.894 31.879C189.894 34.9175 189.275 37.6183 188.037 39.9816C186.799 42.3448 185.111 44.1829 182.973 45.4958C180.835 46.8087 178.416 47.4652 175.715 47.4652C173.727 47.4652 171.963 47.0525 170.426 46.2273C168.888 45.402 167.725 44.3517 166.937 43.0763H166.43L166.937 47.1838V59.0001H159.341V17.1931ZM178.359 39.4189C179.635 38.6686 180.629 37.6558 181.341 36.3804C182.054 35.105 182.411 33.6046 182.411 31.879C182.411 30.1535 182.054 28.653 181.341 27.3776C180.629 26.1022 179.635 25.0894 178.359 24.3391C177.159 23.6264 175.846 23.27 174.421 23.27C172.995 23.27 171.682 23.6264 170.482 24.3391C169.281 25.0519 168.306 26.0647 167.556 27.3776C166.806 28.6905 166.43 30.191 166.43 31.879C166.43 33.567 166.806 35.0675 167.556 36.3804C168.306 37.6933 169.281 38.7062 170.482 39.4189C171.682 40.1316 172.995 40.488 174.421 40.488C175.846 40.488 177.159 40.1316 178.359 39.4189Z" fill="black"/>
<path d="M127.662 44.2016C125.786 41.9884 124.849 38.9312 124.849 35.03V17.1931H132.445V34.1297C132.445 36.1553 132.914 37.7121 133.851 38.7999C134.789 39.9253 136.065 40.488 137.678 40.488C139.816 40.488 141.523 39.7002 142.798 38.1247C144.073 36.5867 144.711 34.5986 144.711 32.1603V17.1931H152.251V46.5649H145.161V42.8512H144.711C143.811 44.2767 142.573 45.402 140.997 46.2273C139.459 47.0525 137.696 47.4652 135.708 47.4652C132.182 47.4652 129.5 46.3773 127.662 44.2016Z" fill="black"/>
<rect y="6" width="54" height="54" fill="black"/>
<path d="M15.5334 32.5816L19.08 36.3301L8.94669 47.0401L5.40002 43.2916L15.5334 32.5816Z" fill="#BF6BF7"/>
<path d="M19.08 36.3301L15.5334 40.0786L5.40003 29.3686L8.94669 25.6201L19.08 36.3301Z" fill="#BF6BF7"/>
<path d="M25.0086 38.2461C24.0416 37.616 23.2958 36.7583 22.7713 35.6731C22.2305 34.5704 21.96 33.3101 21.96 31.8924C21.96 30.4921 22.2305 29.2406 22.7713 28.1379C23.3122 27.0352 24.058 26.1688 25.0086 25.5387C25.9757 24.9085 27.0329 24.5935 28.1802 24.5935C29.0489 24.5935 29.8192 24.7948 30.4912 25.1973C31.1632 25.5999 31.6713 26.0988 32.0155 26.6939H32.2368L32.0155 24.7773V19.5H35.31V38.7449H32.2368V37.1171H32.0155C31.6713 37.7297 31.1714 38.2198 30.5158 38.5874C29.8438 38.9725 29.0653 39.165 28.1802 39.165C27.0001 39.165 25.9429 38.8587 25.0086 38.2461ZM28.7211 35.9094C29.3603 35.9094 29.9422 35.7431 30.4666 35.4105C30.9911 35.078 31.4173 34.6054 31.7451 33.9928C32.0729 33.3801 32.2368 32.68 32.2368 31.8924C32.2368 31.1047 32.0729 30.4046 31.7451 29.792C31.4173 29.1793 30.9911 28.7068 30.4666 28.3742C29.9422 28.0416 29.3603 27.8753 28.7211 27.8753C28.1146 27.8753 27.5492 28.0416 27.0247 28.3742C26.4674 28.7243 26.033 29.1968 25.7216 29.792C25.4102 30.3871 25.2545 31.0872 25.2545 31.8924C25.2545 32.6975 25.4102 33.3976 25.7216 33.9928C26.033 34.5879 26.4674 35.0605 27.0247 35.4105C27.5492 35.7431 28.1146 35.9094 28.7211 35.9094Z" fill="white"/>
<path d="M40.2163 31.7873L35.7663 25.0398H39.6754L42.1094 28.9518H42.2815L44.568 25.0398H48.6L44.0763 31.7873L48.6 38.7449H44.6909L42.2078 34.7279H42.0602L39.6509 38.7449H35.7417L40.2163 31.7873Z" fill="white"/>
<rect x="21.96" y="43.98" width="26.64" height="3.06" fill="white"/>
</svg>
