<svg width="240" height="318" viewBox="0 0 240 318" fill="none" xmlns="http://www.w3.org/2000/svg">
<rect width="240" height="239.723" fill="black"/>
<path d="M91.7333 101.403L110.4 119.862L57.0667 172.601L38.4 154.142L91.7333 101.403Z" fill="white"/>
<path d="M110.4 119.862L91.7333 138.32L38.4 85.5811L57.0667 67.1225L110.4 119.862Z" fill="white"/>
<path d="M139.879 142.631C135.857 140.162 132.756 136.801 130.574 132.549C128.325 128.228 127.2 123.291 127.2 117.736C127.2 112.249 128.325 107.345 130.574 103.025C132.824 98.7042 135.925 95.3094 139.879 92.8405C143.901 90.3716 148.298 89.1371 153.07 89.1371C156.683 89.1371 159.886 89.9258 162.681 91.5031C165.476 93.0805 167.589 95.0351 169.021 97.3669H169.941L169.021 89.8572V69.1799H182.723V144.585H169.941V138.207H169.021C167.589 140.607 165.51 142.528 162.784 143.968C159.989 145.477 156.751 146.231 153.07 146.231C148.162 146.231 143.765 145.031 139.879 142.631ZM155.319 133.475C157.978 133.475 160.398 132.823 162.579 131.52C164.76 130.217 166.533 128.366 167.896 125.965C169.259 123.565 169.941 120.822 169.941 117.736C169.941 114.649 169.259 111.906 167.896 109.506C166.533 107.105 164.76 105.254 162.579 103.951C160.398 102.648 157.978 101.996 155.319 101.996C152.797 101.996 150.445 102.648 148.264 103.951C145.946 105.322 144.14 107.174 142.845 109.506C141.549 111.838 140.902 114.581 140.902 117.736C140.902 120.89 141.549 123.634 142.845 125.965C144.14 128.297 145.946 130.149 148.264 131.52C150.445 132.823 152.797 133.475 155.319 133.475Z" fill="white"/>
<path d="M191.369 82.3475C189.597 80.5644 188.71 78.4384 188.71 75.9695C188.71 73.5691 189.597 71.4774 191.369 69.6943C193.073 67.9797 195.152 67.1225 197.606 67.1225C200.06 67.1225 202.14 67.9797 203.844 69.6943C205.548 71.4088 206.4 73.5005 206.4 75.9695C206.4 78.507 205.548 80.633 203.844 82.3475C202.14 84.0621 200.06 84.9193 197.606 84.9193C195.152 84.9193 193.073 84.0621 191.369 82.3475ZM190.756 90.8859H204.457V144.585H190.756V90.8859Z" fill="white"/>
<rect x="127.2" y="160.614" width="79.2" height="11.9862" fill="white"/>
<path d="M8.39512 300.657C5.73215 299.037 3.67851 296.833 2.23419 294.045C0.744729 291.211 0 287.972 0 284.329C0 280.731 0.744729 277.515 2.23419 274.681C3.72364 271.847 5.77729 269.621 8.39512 268.002C11.0581 266.382 13.9693 265.573 17.1288 265.573C19.5209 265.573 21.6423 266.09 23.4928 267.125C25.3433 268.159 26.7425 269.441 27.6904 270.97H28.2997L27.6904 266.045V252.484H36.7625V301.938H28.2997V297.755H27.6904C26.7425 299.33 25.3659 300.589 23.5605 301.534C21.71 302.523 19.5661 303.018 17.1288 303.018C13.879 303.018 10.9678 302.231 8.39512 300.657ZM18.6182 294.652C20.3785 294.652 21.9808 294.225 23.4251 293.37C24.8694 292.515 26.0429 291.301 26.9456 289.727C27.8483 288.152 28.2997 286.353 28.2997 284.329C28.2997 282.305 27.8483 280.506 26.9456 278.932C26.0429 277.357 24.8694 276.143 23.4251 275.288C21.9808 274.434 20.3785 274.006 18.6182 274.006C16.9482 274.006 15.3911 274.434 13.9467 275.288C12.4121 276.188 11.2161 277.402 10.3585 278.932C9.50093 280.461 9.07215 282.26 9.07215 284.329C9.07215 286.398 9.50093 288.197 10.3585 289.727C11.2161 291.256 12.4121 292.47 13.9467 293.37C15.3911 294.225 16.9482 294.652 18.6182 294.652Z" fill="black"/>
<path d="M42.4874 261.12C41.3139 259.95 40.7272 258.556 40.7272 256.937C40.7272 255.363 41.3139 253.991 42.4874 252.821C43.6158 251.697 44.9924 251.134 46.6173 251.134C48.2422 251.134 49.6188 251.697 50.7472 252.821C51.8755 253.946 52.4397 255.318 52.4397 256.937C52.4397 258.601 51.8755 259.995 50.7472 261.12C49.6188 262.244 48.2422 262.807 46.6173 262.807C44.9924 262.807 43.6158 262.244 42.4874 261.12ZM42.0812 266.72H51.1534V301.938H42.0812V266.72Z" fill="black"/>
<path d="M72.3145 317.996C67.8461 317.996 64.1225 316.984 61.1436 314.96C58.1647 312.936 56.1787 310.529 55.1857 307.741L63.7163 304.3C64.4836 306.054 65.6119 307.426 67.1014 308.415C68.6811 309.45 70.4188 309.967 72.3145 309.967C75.2031 309.967 77.4825 309.09 79.1525 307.336C80.8225 305.627 81.6575 303.13 81.6575 299.847V297.081H81.1158C79.9423 298.745 78.498 299.959 76.7829 300.724C74.9775 301.534 72.9238 301.938 70.6219 301.938C67.6882 301.938 64.9575 301.196 62.4299 299.712C59.9926 298.273 57.9841 296.159 56.4044 293.37C54.8698 290.626 54.1025 287.433 54.1025 283.789C54.1025 280.146 54.8698 276.953 56.4044 274.209C57.9841 271.42 59.9926 269.306 62.4299 267.867C65.0026 266.337 67.7333 265.573 70.6219 265.573C72.7884 265.573 74.8421 266 76.7829 266.855C78.5431 267.619 79.9875 268.811 81.1158 270.431H81.6575V266.72H90.3911V299.51C90.3911 303.378 89.6689 306.661 88.2246 309.36C86.7803 312.059 84.6589 314.173 81.8606 315.702C79.0622 317.231 75.8802 317.996 72.3145 317.996ZM72.4499 293.707C74.9775 293.707 77.144 292.83 78.9494 291.076C80.7548 289.322 81.6575 286.893 81.6575 283.789C81.6575 280.641 80.7773 278.189 79.0171 276.435C77.2568 274.681 75.0677 273.804 72.4499 273.804C69.9223 273.804 67.7333 274.681 65.8828 276.435C64.0774 278.189 63.1747 280.641 63.1747 283.789C63.1747 286.893 64.0774 289.322 65.8828 291.076C67.7333 292.83 69.9223 293.707 72.4499 293.707Z" fill="black"/>
<path d="M96.0483 261.12C94.8748 259.95 94.2881 258.556 94.2881 256.937C94.2881 255.363 94.8748 253.991 96.0483 252.821C97.1767 251.697 98.5533 251.134 100.178 251.134C101.803 251.134 103.18 251.697 104.308 252.821C105.436 253.946 106.001 255.318 106.001 256.937C106.001 258.601 105.436 259.995 104.308 261.12C103.18 262.244 101.803 262.807 100.178 262.807C98.5533 262.807 97.1767 262.244 96.0483 261.12ZM95.6421 266.72H104.714V301.938H95.6421V266.72Z" fill="black"/>
<path d="M110.516 266.72H118.979V271.105H119.588C120.717 269.351 122.206 268.002 124.057 267.057C125.998 266.068 128.096 265.573 130.353 265.573C134.596 265.573 137.846 266.877 140.102 269.486C142.314 272.005 143.42 275.513 143.42 280.011V301.938H134.348V281.158C134.348 278.909 133.761 277.155 132.587 275.896C131.414 274.636 129.812 274.006 127.78 274.006C125.298 274.006 123.312 274.951 121.823 276.84C120.333 278.729 119.588 281.113 119.588 283.992V301.938H110.516V266.72Z" fill="#555555"/>
<path d="M154.899 300.657C152.101 299.082 149.889 296.856 148.265 293.977C146.685 291.233 145.895 288.04 145.895 284.397C145.895 281.068 146.685 277.942 148.265 275.018C149.799 272.095 151.966 269.801 154.764 268.137C157.562 266.427 160.654 265.573 164.039 265.573C167.65 265.573 170.787 266.36 173.45 267.934C176.113 269.508 178.121 271.645 179.475 274.344C180.83 277.043 181.507 280.079 181.507 283.452C181.507 284.532 181.439 285.544 181.303 286.488H154.764C155.215 289.187 156.344 291.301 158.149 292.83C159.909 294.315 162.031 295.057 164.513 295.057C166.589 295.057 168.395 294.607 169.929 293.707C171.374 292.853 172.547 291.638 173.45 290.064L180.83 293.64C177.264 299.892 171.78 303.018 164.378 303.018C160.812 303.018 157.653 302.231 154.899 300.657ZM172.773 280.011C172.683 278.932 172.276 277.852 171.554 276.773C170.787 275.693 169.794 274.794 168.575 274.074C167.312 273.354 165.822 272.994 164.107 272.994C161.94 272.994 160.09 273.624 158.555 274.884C156.976 276.188 155.847 277.897 155.17 280.011H172.773Z" fill="#555555"/>
<path d="M192.445 284.059L180.19 266.72H190.955L197.658 276.773H198.132L204.428 266.72H215.531L203.074 284.059L215.531 301.938H204.766L197.928 291.616H197.522L190.887 301.938H180.123L192.445 284.059Z" fill="#555555"/>
<path d="M232.021 302.478C230.261 302.478 228.636 302.208 227.146 301.669C225.657 301.129 224.461 300.409 223.558 299.51C221.392 297.441 220.308 294.494 220.308 290.671V274.411H214.147V266.72H220.308V256.734H229.38V266.72H238.046V274.411H229.38V289.052C229.38 290.851 229.764 292.133 230.531 292.898C231.208 293.617 232.337 293.977 233.916 293.977C234.684 293.977 235.406 293.865 236.083 293.64C236.444 293.505 237.189 293.123 238.317 292.493V301.331C236.467 302.096 234.368 302.478 232.021 302.478Z" fill="#555555"/>
</svg>
