<svg width="297" height="66" viewBox="0 0 297 66" fill="none" xmlns="http://www.w3.org/2000/svg">
<path d="M69.6914 48.7422C67.0794 47.1484 65.0651 44.9792 63.6484 42.2344C62.1875 39.4453 61.457 36.2578 61.457 32.6719C61.457 29.1302 62.1875 25.9648 63.6484 23.1758C65.1094 20.3867 67.1237 18.1953 69.6914 16.6016C72.3034 15.0078 75.1589 14.2109 78.2578 14.2109C80.6042 14.2109 82.6849 14.7201 84.5 15.7383C86.3151 16.7565 87.6875 18.0182 88.6172 19.5234H89.2148L88.6172 14.6758V1.32812H97.5156V50.0039H89.2148V45.8867H88.6172C87.6875 47.4362 86.3372 48.6758 84.5664 49.6055C82.7513 50.5794 80.6484 51.0664 78.2578 51.0664C75.0703 51.0664 72.2148 50.2917 69.6914 48.7422ZM79.7188 42.832C81.4453 42.832 83.0169 42.4115 84.4336 41.5703C85.8503 40.7292 87.0013 39.5339 87.8867 37.9844C88.7721 36.4349 89.2148 34.6641 89.2148 32.6719C89.2148 30.6797 88.7721 28.9089 87.8867 27.3594C87.0013 25.8099 85.8503 24.6146 84.4336 23.7734C83.0169 22.9323 81.4453 22.5117 79.7188 22.5117C78.0807 22.5117 76.5534 22.9323 75.1367 23.7734C73.6315 24.6589 72.4583 25.8542 71.6172 27.3594C70.776 28.8646 70.3555 30.6354 70.3555 32.6719C70.3555 34.7083 70.776 36.4792 71.6172 37.9844C72.4583 39.4896 73.6315 40.6849 75.1367 41.5703C76.5534 42.4115 78.0807 42.832 79.7188 42.832Z" fill="black"/>
<path d="M103.131 9.82812C101.98 8.67708 101.404 7.30469 101.404 5.71094C101.404 4.16146 101.98 2.8112 103.131 1.66016C104.238 0.553385 105.588 0 107.182 0C108.775 0 110.126 0.553385 111.232 1.66016C112.339 2.76693 112.893 4.11719 112.893 5.71094C112.893 7.34896 112.339 8.72135 111.232 9.82812C110.126 10.9349 108.775 11.4883 107.182 11.4883C105.588 11.4883 104.238 10.9349 103.131 9.82812ZM102.732 15.3398H111.631V50.0039H102.732V15.3398Z" fill="black"/>
<path d="M132.387 65.8086C128.004 65.8086 124.352 64.8125 121.43 62.8203C118.508 60.8281 116.56 58.4596 115.586 55.7148L123.953 52.3281C124.706 54.0547 125.813 55.4049 127.274 56.3789C128.823 57.3971 130.527 57.9062 132.387 57.9062C135.22 57.9062 137.456 57.043 139.094 55.3164C140.732 53.6341 141.551 51.1771 141.551 47.9453V45.2227H141.02C139.869 46.8607 138.452 48.056 136.77 48.8086C134.999 49.6055 132.985 50.0039 130.727 50.0039C127.849 50.0039 125.171 49.2734 122.692 47.8125C120.301 46.3958 118.331 44.3151 116.781 41.5703C115.276 38.8698 114.524 35.7266 114.524 32.1406C114.524 28.5547 115.276 25.4115 116.781 22.7109C118.331 19.9661 120.301 17.8854 122.692 16.4688C125.215 14.9635 127.893 14.2109 130.727 14.2109C132.852 14.2109 134.866 14.6315 136.77 15.4727C138.496 16.2253 139.913 17.3984 141.02 18.9922H141.551V15.3398H150.117V47.6133C150.117 51.4206 149.409 54.6523 147.992 57.3086C146.576 59.9648 144.495 62.0456 141.75 63.5508C139.005 65.056 135.884 65.8086 132.387 65.8086ZM132.52 41.9023C134.999 41.9023 137.124 41.0391 138.895 39.3125C140.666 37.5859 141.551 35.1953 141.551 32.1406C141.551 29.0417 140.688 26.6289 138.961 24.9023C137.235 23.1758 135.087 22.3125 132.52 22.3125C130.041 22.3125 127.893 23.1758 126.078 24.9023C124.307 26.6289 123.422 29.0417 123.422 32.1406C123.422 35.1953 124.307 37.5859 126.078 39.3125C127.893 41.0391 130.041 41.9023 132.52 41.9023Z" fill="black"/>
<path d="M155.666 9.82812C154.515 8.67708 153.94 7.30469 153.94 5.71094C153.94 4.16146 154.515 2.8112 155.666 1.66016C156.773 0.553385 158.123 0 159.717 0C161.311 0 162.661 0.553385 163.768 1.66016C164.875 2.76693 165.428 4.11719 165.428 5.71094C165.428 7.34896 164.875 8.72135 163.768 9.82812C162.661 10.9349 161.311 11.4883 159.717 11.4883C158.123 11.4883 156.773 10.9349 155.666 9.82812ZM155.268 15.3398H164.166V50.0039H155.268V15.3398Z" fill="black"/>
<path d="M169.857 15.3398H178.158V19.6562H178.756C179.862 17.9297 181.323 16.6016 183.138 15.6719C185.042 14.6979 187.101 14.2109 189.314 14.2109C193.476 14.2109 196.663 15.4948 198.877 18.0625C201.046 20.5417 202.131 23.9948 202.131 28.4219V50.0039H193.232V29.5508C193.232 27.3372 192.657 25.6107 191.506 24.3711C190.355 23.1315 188.783 22.5117 186.791 22.5117C184.356 22.5117 182.408 23.4414 180.947 25.3008C179.486 27.1602 178.756 29.5065 178.756 32.3398V50.0039H169.857V15.3398Z" fill="#555555"/>
<path d="M213.39 48.7422C210.646 47.1927 208.476 45.0013 206.883 42.168C205.333 39.4674 204.558 36.3242 204.558 32.7383C204.558 29.4622 205.333 26.3854 206.883 23.5078C208.388 20.6302 210.513 18.3724 213.258 16.7344C216.002 15.0521 219.035 14.2109 222.355 14.2109C225.897 14.2109 228.974 14.9857 231.586 16.5352C234.198 18.0846 236.168 20.1875 237.496 22.8438C238.824 25.5 239.488 28.4883 239.488 31.8086C239.488 32.8711 239.422 33.8672 239.289 34.7969H213.258C213.7 37.4531 214.807 39.5339 216.578 41.0391C218.305 42.5 220.385 43.2305 222.82 43.2305C224.857 43.2305 226.627 42.7878 228.133 41.9023C229.549 41.0612 230.7 39.8659 231.586 38.3164L238.824 41.8359C235.327 47.9896 229.948 51.0664 222.687 51.0664C219.19 51.0664 216.091 50.2917 213.39 48.7422ZM230.922 28.4219C230.833 27.3594 230.435 26.2969 229.726 25.2344C228.974 24.1719 228 23.2865 226.805 22.5781C225.565 21.8698 224.104 21.5156 222.422 21.5156C220.297 21.5156 218.482 22.1354 216.976 23.375C215.427 24.6589 214.32 26.3411 213.656 28.4219H230.922Z" fill="#555555"/>
<path d="M250.217 32.4062L238.197 15.3398H248.756L255.33 25.2344H255.795L261.971 15.3398H272.861L260.643 32.4062L272.861 50.0039H262.303L255.596 39.8438H255.197L248.689 50.0039H238.131L250.217 32.4062Z" fill="#555555"/>
<path d="M289.035 50.5352C287.309 50.5352 285.715 50.2695 284.254 49.7383C282.793 49.207 281.62 48.4987 280.734 47.6133C278.609 45.5768 277.547 42.6771 277.547 38.9141V22.9102H271.504V15.3398H277.547V5.51172H286.445V15.3398H294.945V22.9102H286.445V37.3203C286.445 39.0911 286.822 40.3529 287.574 41.1055C288.238 41.8138 289.345 42.168 290.895 42.168C291.647 42.168 292.355 42.0573 293.02 41.8359C293.374 41.7031 294.104 41.3268 295.211 40.707V49.4062C293.396 50.1589 291.337 50.5352 289.035 50.5352Z" fill="#555555"/>
<rect x="1" y="6.00391" width="54" height="54" fill="black"/>
<path d="M21.64 28.8459L25.84 33.0039L13.84 44.8839L9.64 40.7259L21.64 28.8459Z" fill="white"/>
<path d="M25.84 33.0039L21.64 37.1619L9.64 25.2819L13.84 21.1239L25.84 33.0039Z" fill="white"/>
<path d="M32.4728 38.1328C31.5679 37.5767 30.87 36.8197 30.3792 35.8619C29.8731 34.8886 29.62 33.7763 29.62 32.525C29.62 31.2891 29.8731 30.1845 30.3792 29.2113C30.8854 28.238 31.5832 27.4733 32.4728 26.9171C33.3777 26.361 34.367 26.0829 35.4407 26.0829C36.2536 26.0829 36.9744 26.2606 37.6033 26.6159C38.2321 26.9712 38.7076 27.4115 39.0297 27.9367H39.2368L39.0297 26.2451V21.5874H42.1126V38.5731H39.2368V37.1364H39.0297C38.7076 37.6771 38.2398 38.1097 37.6263 38.4341C36.9975 38.774 36.2689 38.9439 35.4407 38.9439C34.3364 38.9439 33.3471 38.6736 32.4728 38.1328ZM35.9468 36.0705C36.545 36.0705 37.0895 35.9237 37.5803 35.6302C38.0711 35.3366 38.4699 34.9195 38.7766 34.3788C39.0834 33.8381 39.2368 33.2202 39.2368 32.525C39.2368 31.8298 39.0834 31.2119 38.7766 30.6712C38.4699 30.1305 38.0711 29.7133 37.5803 29.4198C37.0895 29.1263 36.545 28.9795 35.9468 28.9795C35.3793 28.9795 34.8502 29.1263 34.3594 29.4198C33.8379 29.7288 33.4314 30.1459 33.14 30.6712C32.8486 31.1964 32.7029 31.8144 32.7029 32.525C32.7029 33.2356 32.8486 33.8536 33.14 34.3788C33.4314 34.9041 33.8379 35.3212 34.3594 35.6302C34.8502 35.9237 35.3793 36.0705 35.9468 36.0705Z" fill="white"/>
<path d="M44.058 24.5535C43.6592 24.1518 43.4599 23.6729 43.4599 23.1168C43.4599 22.5761 43.6592 22.1049 44.058 21.7032C44.4415 21.317 44.9093 21.1239 45.4614 21.1239C46.0136 21.1239 46.4814 21.317 46.8648 21.7032C47.2483 22.0894 47.44 22.5606 47.44 23.1168C47.44 23.6884 47.2483 24.1673 46.8648 24.5535C46.4814 24.9397 46.0136 25.1328 45.4614 25.1328C44.9093 25.1328 44.4415 24.9397 44.058 24.5535ZM43.92 26.4769H47.0029V38.5731H43.92V26.4769Z" fill="white"/>
<rect x="29.62" y="42.1839" width="17.82" height="2.7" fill="white"/>
</svg>
