<svg width="100" height="100" viewBox="0 0 100 100" fill="none" xmlns="http://www.w3.org/2000/svg">
<rect width="100" height="100" fill="black"/>
<path d="M38.2222 42.3L46 50L23.7778 72L16 64.3L38.2222 42.3Z" fill="white"/>
<path d="M46 50L38.2222 57.7L16 35.7L23.7778 28L46 50Z" fill="white"/>
<path d="M58.283 59.498C56.6072 58.4681 55.3149 57.0663 54.406 55.2926C53.4687 53.4902 53 51.4304 53 49.1131C53 46.8244 53.4687 44.7789 54.406 42.9766C55.3433 41.1743 56.6356 39.7581 58.283 38.7282C59.9588 37.6983 61.7908 37.1834 63.779 37.1834C65.2844 37.1834 66.6193 37.5124 67.7839 38.1704C68.9484 38.8283 69.8289 39.6437 70.4254 40.6164H70.8088L70.4254 37.4837V28.8583H76.1344V60.3134H70.8088V57.6528H70.4254C69.8289 58.6541 68.9626 59.4551 67.8265 60.0559C66.662 60.6853 65.3128 61 63.779 61C61.734 61 59.902 60.4994 58.283 59.498ZM64.7163 55.6788C65.8241 55.6788 66.8324 55.407 67.7413 54.8635C68.6502 54.3199 69.3887 53.5475 69.9567 52.5462C70.5248 51.5449 70.8088 50.4005 70.8088 49.1131C70.8088 47.8257 70.5248 46.6814 69.9567 45.6801C69.3887 44.6788 68.6502 43.9064 67.7413 43.3628C66.8324 42.8192 65.8241 42.5475 64.7163 42.5475C63.6654 42.5475 62.6855 42.8192 61.7766 43.3628C60.8109 43.935 60.0582 44.7074 59.5185 45.6801C58.9789 46.6528 58.709 47.7971 58.709 49.1131C58.709 50.4291 58.9789 51.5735 59.5185 52.5462C60.0582 53.5189 60.8109 54.2913 61.7766 54.8635C62.6855 55.407 63.6654 55.6788 64.7163 55.6788Z" fill="white"/>
<path d="M79.7371 34.3511C78.9986 33.6073 78.6294 32.7204 78.6294 31.6905C78.6294 30.6892 78.9986 29.8166 79.7371 29.0728C80.4472 28.3576 81.3135 28 82.336 28C83.3585 28 84.2248 28.3576 84.9349 29.0728C85.645 29.788 86 30.6606 86 31.6905C86 32.749 85.645 33.6359 84.9349 34.3511C84.2248 35.0663 83.3585 35.4239 82.336 35.4239C81.3135 35.4239 80.4472 35.0663 79.7371 34.3511ZM79.4815 37.9129H85.1905V60.3134H79.4815V37.9129Z" fill="white"/>
<rect x="53" y="67" width="33" height="5" fill="white"/>
</svg>
