<svg width="297" height="66" viewBox="0 0 297 66" fill="none" xmlns="http://www.w3.org/2000/svg">
<path d="M69.6914 48.7422C67.0794 47.1484 65.0651 44.9792 63.6484 42.2344C62.1875 39.4453 61.457 36.2578 61.457 32.6719C61.457 29.1302 62.1875 25.9648 63.6484 23.1758C65.1094 20.3867 67.1237 18.1953 69.6914 16.6016C72.3034 15.0078 75.1589 14.2109 78.2578 14.2109C80.6042 14.2109 82.6849 14.7201 84.5 15.7383C86.3151 16.7565 87.6875 18.0182 88.6172 19.5234H89.2148L88.6172 14.6758V1.32812H97.5156V50.0039H89.2148V45.8867H88.6172C87.6875 47.4362 86.3372 48.6758 84.5664 49.6055C82.7513 50.5794 80.6484 51.0664 78.2578 51.0664C75.0703 51.0664 72.2148 50.2917 69.6914 48.7422ZM79.7188 42.832C81.4453 42.832 83.0169 42.4115 84.4336 41.5703C85.8503 40.7292 87.0013 39.5339 87.8867 37.9844C88.7721 36.4349 89.2148 34.6641 89.2148 32.6719C89.2148 30.6797 88.7721 28.9089 87.8867 27.3594C87.0013 25.8099 85.8503 24.6146 84.4336 23.7734C83.0169 22.9323 81.4453 22.5117 79.7188 22.5117C78.0807 22.5117 76.5534 22.9323 75.1367 23.7734C73.6315 24.6589 72.4583 25.8542 71.6172 27.3594C70.776 28.8646 70.3555 30.6354 70.3555 32.6719C70.3555 34.7083 70.776 36.4792 71.6172 37.9844C72.4583 39.4896 73.6315 40.6849 75.1367 41.5703C76.5534 42.4115 78.0807 42.832 79.7188 42.832Z" fill="#BF6BF7"/>
<path d="M103.131 9.82812C101.98 8.67708 101.404 7.30469 101.404 5.71094C101.404 4.16146 101.98 2.8112 103.131 1.66016C104.238 0.553385 105.588 0 107.182 0C108.775 0 110.126 0.553385 111.232 1.66016C112.339 2.76693 112.893 4.11719 112.893 5.71094C112.893 7.34896 112.339 8.72135 111.232 9.82812C110.126 10.9349 108.775 11.4883 107.182 11.4883C105.588 11.4883 104.238 10.9349 103.131 9.82812ZM102.732 15.3398H111.631V50.0039H102.732V15.3398Z" fill="#BF6BF7"/>
<path d="M132.387 65.8086C128.004 65.8086 124.352 64.8125 121.43 62.8203C118.508 60.8281 116.56 58.4596 115.586 55.7148L123.953 52.3281C124.706 54.0547 125.813 55.4049 127.274 56.3789C128.823 57.3971 130.527 57.9062 132.387 57.9062C135.22 57.9062 137.456 57.043 139.094 55.3164C140.732 53.6341 141.551 51.1771 141.551 47.9453V45.2227H141.02C139.869 46.8607 138.452 48.056 136.77 48.8086C134.999 49.6055 132.985 50.0039 130.727 50.0039C127.849 50.0039 125.171 49.2734 122.692 47.8125C120.301 46.3958 118.331 44.3151 116.781 41.5703C115.276 38.8698 114.524 35.7266 114.524 32.1406C114.524 28.5547 115.276 25.4115 116.781 22.7109C118.331 19.9661 120.301 17.8854 122.692 16.4688C125.215 14.9635 127.893 14.2109 130.727 14.2109C132.852 14.2109 134.866 14.6315 136.77 15.4727C138.496 16.2253 139.913 17.3984 141.02 18.9922H141.551V15.3398H150.117V47.6133C150.117 51.4206 149.409 54.6523 147.992 57.3086C146.576 59.9648 144.495 62.0456 141.75 63.5508C139.005 65.056 135.884 65.8086 132.387 65.8086ZM132.52 41.9023C134.999 41.9023 137.124 41.0391 138.895 39.3125C140.666 37.5859 141.551 35.1953 141.551 32.1406C141.551 29.0417 140.688 26.6289 138.961 24.9023C137.235 23.1758 135.087 22.3125 132.52 22.3125C130.041 22.3125 127.893 23.1758 126.078 24.9023C124.307 26.6289 123.422 29.0417 123.422 32.1406C123.422 35.1953 124.307 37.5859 126.078 39.3125C127.893 41.0391 130.041 41.9023 132.52 41.9023Z" fill="#BF6BF7"/>
<path d="M155.666 9.82812C154.515 8.67708 153.94 7.30469 153.94 5.71094C153.94 4.16146 154.515 2.8112 155.666 1.66016C156.773 0.553385 158.123 0 159.717 0C161.311 0 162.661 0.553385 163.768 1.66016C164.875 2.76693 165.428 4.11719 165.428 5.71094C165.428 7.34896 164.875 8.72135 163.768 9.82812C162.661 10.9349 161.311 11.4883 159.717 11.4883C158.123 11.4883 156.773 10.9349 155.666 9.82812ZM155.268 15.3398H164.166V50.0039H155.268V15.3398Z" fill="#BF6BF7"/>
<path d="M169.857 15.3398H178.158V19.6562H178.756C179.862 17.9297 181.323 16.6016 183.138 15.6719C185.042 14.6979 187.101 14.2109 189.314 14.2109C193.476 14.2109 196.663 15.4948 198.877 18.0625C201.046 20.5417 202.131 23.9948 202.131 28.4219V50.0039H193.232V29.5508C193.232 27.3372 192.657 25.6107 191.506 24.3711C190.355 23.1315 188.783 22.5117 186.791 22.5117C184.356 22.5117 182.408 23.4414 180.947 25.3008C179.486 27.1602 178.756 29.5065 178.756 32.3398V50.0039H169.857V15.3398Z" fill="white"/>
<path d="M213.39 48.7422C210.646 47.1927 208.476 45.0013 206.883 42.168C205.333 39.4674 204.558 36.3242 204.558 32.7383C204.558 29.4622 205.333 26.3854 206.883 23.5078C208.388 20.6302 210.513 18.3724 213.258 16.7344C216.002 15.0521 219.035 14.2109 222.355 14.2109C225.897 14.2109 228.974 14.9857 231.586 16.5352C234.198 18.0846 236.168 20.1875 237.496 22.8438C238.824 25.5 239.488 28.4883 239.488 31.8086C239.488 32.8711 239.422 33.8672 239.289 34.7969H213.258C213.7 37.4531 214.807 39.5339 216.578 41.0391C218.305 42.5 220.385 43.2305 222.82 43.2305C224.857 43.2305 226.627 42.7878 228.133 41.9023C229.549 41.0612 230.7 39.8659 231.586 38.3164L238.824 41.8359C235.327 47.9896 229.948 51.0664 222.687 51.0664C219.19 51.0664 216.091 50.2917 213.39 48.7422ZM230.922 28.4219C230.833 27.3594 230.435 26.2969 229.726 25.2344C228.974 24.1719 228 23.2865 226.805 22.5781C225.565 21.8698 224.104 21.5156 222.422 21.5156C220.297 21.5156 218.482 22.1354 216.976 23.375C215.427 24.6589 214.32 26.3411 213.656 28.4219H230.922Z" fill="white"/>
<path d="M250.217 32.4062L238.197 15.3398H248.756L255.33 25.2344H255.795L261.971 15.3398H272.861L260.642 32.4062L272.861 50.0039H262.303L255.596 39.8438H255.197L248.689 50.0039H238.131L250.217 32.4062Z" fill="white"/>
<path d="M289.035 50.5352C287.309 50.5352 285.715 50.2695 284.254 49.7383C282.793 49.207 281.62 48.4987 280.734 47.6133C278.609 45.5768 277.547 42.6771 277.547 38.9141V22.9102H271.504V15.3398H277.547V5.51172H286.445V15.3398H294.945V22.9102H286.445V37.3203C286.445 39.0911 286.822 40.3529 287.574 41.1055C288.238 41.8138 289.345 42.168 290.895 42.168C291.647 42.168 292.355 42.0573 293.02 41.8359C293.374 41.7031 294.104 41.3268 295.211 40.707V49.4062C293.396 50.1589 291.337 50.5352 289.035 50.5352Z" fill="white"/>
<rect x="1" y="6.00391" width="54" height="54" fill="white"/>
<path d="M16.5333 31.5054L20.08 35.2539L9.94666 45.9639L6.39999 42.2154L16.5333 31.5054Z" fill="#BF6BF7"/>
<path d="M20.08 35.2539L16.5333 39.0024L6.4 28.2924L9.94666 24.5439L20.08 35.2539Z" fill="#BF6BF7"/>
<path d="M26.0086 37.17C25.0416 36.5399 24.2958 35.6822 23.7713 34.597C23.2304 33.4943 22.96 32.234 22.96 30.8163C22.96 29.416 23.2304 28.1645 23.7713 27.0618C24.3122 25.9591 25.058 25.0927 26.0086 24.4626C26.9756 23.8324 28.0328 23.5174 29.1802 23.5174C30.0488 23.5174 30.8192 23.7187 31.4912 24.1212C32.1632 24.5238 32.6713 25.0227 33.0155 25.6178H33.2368L33.0155 23.7012V18.4239H36.31V37.6688H33.2368V36.041H33.0155C32.6713 36.6536 32.1714 37.1437 31.5158 37.5113C30.8438 37.8964 30.0652 38.0889 29.1802 38.0889C28 38.0889 26.9429 37.7826 26.0086 37.17ZM29.721 34.8333C30.3603 34.8333 30.9421 34.667 31.4666 34.3344C31.9911 34.0019 32.4173 33.5293 32.7451 32.9167C33.0729 32.304 33.2368 31.6039 33.2368 30.8163C33.2368 30.0286 33.0729 29.3285 32.7451 28.7159C32.4173 28.1032 31.9911 27.6307 31.4666 27.2981C30.9421 26.9655 30.3603 26.7992 29.721 26.7992C29.1146 26.7992 28.5491 26.9655 28.0246 27.2981C27.4674 27.6482 27.033 28.1208 26.7216 28.7159C26.4102 29.311 26.2545 30.0111 26.2545 30.8163C26.2545 31.6214 26.4102 32.3216 26.7216 32.9167C27.033 33.5118 27.4674 33.9844 28.0246 34.3344C28.5491 34.667 29.1146 34.8333 29.721 34.8333Z" fill="black"/>
<path d="M41.2163 30.7112L36.7663 23.9637H40.6754L43.1094 27.8757H43.2815L45.5679 23.9637H49.6L45.0762 30.7112L49.6 37.6688H45.6909L43.2077 33.6518H43.0602L40.6508 37.6688H36.7417L41.2163 30.7112Z" fill="black"/>
<rect x="22.96" y="42.9039" width="26.64" height="3.06" fill="black"/>
</svg>
