<svg width="274" height="90" viewBox="0 0 274 90" fill="none" xmlns="http://www.w3.org/2000/svg">
<g clip-path="url(#clip0_1205_31634)">
<path d="M0 20C0 8.9543 8.9543 0 20 0H274V70C274 81.0457 265.046 90 254 90H0V20Z" fill="black"/>
<path opacity="0.5" d="M20 0.5H273.5V70C273.5 80.7696 264.77 89.5 254 89.5H0.5V20C0.5 9.23045 9.23045 0.5 20 0.5Z" stroke="url(#paint0_linear_1205_31634)"/>
<path d="M29.2891 58.2578C27.7526 57.3203 26.5677 56.0443 25.7344 54.4297C24.875 52.7891 24.4453 50.9141 24.4453 48.8047C24.4453 46.7214 24.875 44.8594 25.7344 43.2188C26.5938 41.5781 27.7786 40.2891 29.2891 39.3516C30.8255 38.4141 32.5052 37.9453 34.3281 37.9453C35.7083 37.9453 36.9323 38.2448 38 38.8438C39.0677 39.4427 39.875 40.1849 40.4219 41.0703H40.7734L40.4219 38.2188V30.3672H45.6562V59H40.7734V56.5781H40.4219C39.875 57.4896 39.0807 58.2188 38.0391 58.7656C36.9714 59.3385 35.7344 59.625 34.3281 59.625C32.4531 59.625 30.7734 59.1693 29.2891 58.2578ZM35.1875 54.7812C36.2031 54.7812 37.1276 54.5339 37.9609 54.0391C38.7943 53.5443 39.4714 52.8411 39.9922 51.9297C40.513 51.0182 40.7734 49.9766 40.7734 48.8047C40.7734 47.6328 40.513 46.5911 39.9922 45.6797C39.4714 44.7682 38.7943 44.0651 37.9609 43.5703C37.1276 43.0755 36.2031 42.8281 35.1875 42.8281C34.224 42.8281 33.3255 43.0755 32.4922 43.5703C31.6068 44.0911 30.9167 44.7943 30.4219 45.6797C29.9271 46.5651 29.6797 47.6068 29.6797 48.8047C29.6797 50.0026 29.9271 51.0443 30.4219 51.9297C30.9167 52.8151 31.6068 53.5182 32.4922 54.0391C33.3255 54.5339 34.224 54.7812 35.1875 54.7812ZM52.2797 58.2578C50.6651 57.3464 49.3891 56.0573 48.4516 54.3906C47.5401 52.8021 47.0844 50.9531 47.0844 48.8438C47.0844 46.9167 47.5401 45.1068 48.4516 43.4141C49.337 41.7214 50.587 40.3932 52.2016 39.4297C53.8161 38.4401 55.6 37.9453 57.5531 37.9453C59.6365 37.9453 61.4464 38.401 62.9828 39.3125C64.5193 40.224 65.6781 41.4609 66.4594 43.0234C67.2406 44.5859 67.6313 46.3438 67.6313 48.2969C67.6313 48.9219 67.5922 49.5078 67.5141 50.0547H52.2016C52.462 51.6172 53.113 52.8411 54.1547 53.7266C55.1703 54.5859 56.3943 55.0156 57.8266 55.0156C59.0245 55.0156 60.0661 54.7552 60.9516 54.2344C61.7849 53.7396 62.462 53.0365 62.9828 52.125L67.2406 54.1953C65.1833 57.8151 62.0193 59.625 57.7484 59.625C55.6911 59.625 53.8682 59.1693 52.2797 58.2578ZM62.5922 46.3047C62.5401 45.6797 62.3057 45.0547 61.8891 44.4297C61.4464 43.8047 60.8734 43.2839 60.1703 42.8672C59.4411 42.4505 58.5818 42.2422 57.5922 42.2422C56.3422 42.2422 55.2745 42.6068 54.3891 43.3359C53.4776 44.0911 52.8266 45.0807 52.4359 46.3047H62.5922ZM69.0984 38.6094H74.0203V41.0703H74.3719C74.9188 40.1849 75.726 39.4427 76.7938 38.8438C77.8615 38.2448 79.0854 37.9453 80.4656 37.9453C82.2885 37.9453 83.9682 38.4141 85.5047 39.3516C86.963 40.263 88.1349 41.5521 89.0203 43.2188C89.8797 44.8594 90.3094 46.7214 90.3094 48.8047C90.3094 50.9141 89.8797 52.7891 89.0203 54.4297C88.1609 56.0703 86.9891 57.3464 85.5047 58.2578C84.0203 59.1693 82.3406 59.625 80.4656 59.625C79.0854 59.625 77.8615 59.3385 76.7938 58.7656C75.726 58.1927 74.9188 57.4635 74.3719 56.5781H74.0203L74.3719 59.4297V67.6328H69.0984V38.6094ZM82.3016 54.0391C83.187 53.5182 83.8771 52.8151 84.3719 51.9297C84.8667 51.0443 85.1141 50.0026 85.1141 48.8047C85.1141 47.6068 84.8667 46.5651 84.3719 45.6797C83.8771 44.7943 83.187 44.0911 82.3016 43.5703C81.4682 43.0755 80.5568 42.8281 79.5672 42.8281C78.5776 42.8281 77.6661 43.0755 76.8328 43.5703C75.9995 44.0651 75.3224 44.7682 74.8016 45.6797C74.2807 46.5911 74.0203 47.6328 74.0203 48.8047C74.0203 49.9766 74.2807 51.0182 74.8016 51.9297C75.3224 52.8411 75.9995 53.5443 76.8328 54.0391C77.6661 54.5339 78.5776 54.7812 79.5672 54.7812C80.5568 54.7812 81.4682 54.5339 82.3016 54.0391ZM91.5813 30.3672H96.8156V59H91.5813V30.3672ZM109.103 59.625C106.994 59.625 105.119 59.1562 103.478 58.2188C101.838 57.2812 100.548 55.9922 99.6109 54.3516C98.6995 52.763 98.2438 50.9141 98.2438 48.8047C98.2438 46.7214 98.6995 44.8854 99.6109 43.2969C100.574 41.6302 101.864 40.3281 103.478 39.3906C105.171 38.4271 107.046 37.9453 109.103 37.9453C111.16 37.9453 113.035 38.4271 114.728 39.3906C116.343 40.3281 117.632 41.6302 118.595 43.2969C119.507 44.8854 119.963 46.7214 119.963 48.8047C119.963 50.9141 119.507 52.763 118.595 54.3516C117.658 55.9922 116.369 57.2812 114.728 58.2188C113.088 59.1562 111.213 59.625 109.103 59.625ZM111.916 54.0781C112.749 53.6354 113.426 52.9453 113.947 52.0078C114.468 51.0964 114.728 50.0286 114.728 48.8047C114.728 47.6068 114.468 46.5521 113.947 45.6406C113.426 44.7031 112.749 44.013 111.916 43.5703C111.004 43.0755 110.067 42.8281 109.103 42.8281C108.166 42.8281 107.241 43.0755 106.33 43.5703C105.47 44.0391 104.78 44.7292 104.259 45.6406C103.739 46.5521 103.478 47.6068 103.478 48.8047C103.478 49.9505 103.739 51.0052 104.259 51.9688C104.754 52.9062 105.444 53.6094 106.33 54.0781C107.189 54.5469 108.114 54.7812 109.103 54.7812C110.119 54.7812 111.056 54.5469 111.916 54.0781ZM127.094 58.0234L118.5 38.6094H124.477L129.75 51.2656H130.062L135.141 38.6094H141L128.383 67.6328H122.758L127.094 58.0234Z" fill="white"/>
<path d="M157.255 59.3125C156.239 59.3125 155.302 59.1562 154.442 58.8438C153.583 58.5312 152.893 58.1146 152.372 57.5938C151.122 56.3958 150.497 54.6901 150.497 52.4766V43.0625H146.942V38.6094H150.497V32.8281H155.731V38.6094H160.731V43.0625H155.731V51.5391C155.731 52.5807 155.953 53.3229 156.395 53.7656C156.786 54.1823 157.437 54.3906 158.348 54.3906C158.791 54.3906 159.208 54.3255 159.598 54.1953C159.807 54.1172 160.236 53.8958 160.887 53.5312V58.6484C159.82 59.0911 158.609 59.3125 157.255 59.3125ZM171.73 59.625C169.62 59.625 167.745 59.1562 166.105 58.2188C164.464 57.2812 163.175 55.9922 162.238 54.3516C161.326 52.763 160.87 50.9141 160.87 48.8047C160.87 46.7214 161.326 44.8854 162.238 43.2969C163.201 41.6302 164.49 40.3281 166.105 39.3906C167.797 38.4271 169.672 37.9453 171.73 37.9453C173.787 37.9453 175.662 38.4271 177.355 39.3906C178.969 40.3281 180.258 41.6302 181.222 43.2969C182.133 44.8854 182.589 46.7214 182.589 48.8047C182.589 50.9141 182.133 52.763 181.222 54.3516C180.284 55.9922 178.995 57.2812 177.355 58.2188C175.714 59.1562 173.839 59.625 171.73 59.625ZM174.542 54.0781C175.376 53.6354 176.053 52.9453 176.573 52.0078C177.094 51.0964 177.355 50.0286 177.355 48.8047C177.355 47.6068 177.094 46.5521 176.573 45.6406C176.053 44.7031 175.376 44.013 174.542 43.5703C173.631 43.0755 172.693 42.8281 171.73 42.8281C170.792 42.8281 169.868 43.0755 168.956 43.5703C168.097 44.0391 167.407 44.7292 166.886 45.6406C166.365 46.5521 166.105 47.6068 166.105 48.8047C166.105 49.9505 166.365 51.0052 166.886 51.9688C167.381 52.9062 168.071 53.6094 168.956 54.0781C169.816 54.5469 170.74 54.7812 171.73 54.7812C172.745 54.7812 173.683 54.5469 174.542 54.0781Z" fill="#C2C2C2"/>
<path d="M199 14H261V68C261 72.4183 257.418 76 253 76H199V14Z" fill="white"/>
<path d="M216.835 43.2795L220.907 47.5833L209.272 59.88L205.2 55.5761L216.835 43.2795Z" fill="#BF6BF7"/>
<path d="M220.907 47.5833L216.835 51.8871L205.2 39.5905L209.272 35.2866L220.907 47.5833Z" fill="#BF6BF7"/>
<path d="M227.714 49.7833C226.603 49.0598 225.747 48.0751 225.145 46.8291C224.524 45.563 224.213 44.1161 224.213 42.4883C224.213 40.8806 224.524 39.4437 225.145 38.1776C225.766 36.9115 226.622 35.9167 227.714 35.1933C228.824 34.4698 230.038 34.1081 231.355 34.1081C232.352 34.1081 233.237 34.3392 234.008 34.8014C234.78 35.2636 235.363 35.8364 235.759 36.5196H236.013L235.759 34.3191V28.26H239.541V50.356H236.013V48.4871H235.759C235.363 49.1904 234.789 49.7531 234.037 50.1752C233.265 50.6173 232.371 50.8383 231.355 50.8383C230 50.8383 228.786 50.4867 227.714 49.7833ZM231.976 47.1004C232.71 47.1004 233.378 46.9095 233.98 46.5277C234.582 46.1458 235.072 45.6032 235.448 44.8998C235.824 44.1965 236.013 43.3926 236.013 42.4883C236.013 41.5839 235.824 40.7801 235.448 40.0767C235.072 39.3733 234.582 38.8307 233.98 38.4489C233.378 38.0671 232.71 37.8761 231.976 37.8761C231.28 37.8761 230.63 38.0671 230.028 38.4489C229.388 38.8508 228.89 39.3934 228.532 40.0767C228.175 40.76 227.996 41.5638 227.996 42.4883C227.996 43.4127 228.175 44.2166 228.532 44.8998C228.89 45.5831 229.388 46.1257 230.028 46.5277C230.63 46.9095 231.28 47.1004 231.976 47.1004Z" fill="black"/>
<path d="M245.174 42.3677L240.065 34.6205H244.553L247.348 39.1121H247.545L250.171 34.6205H254.8L249.606 42.3677L254.8 50.356H250.312L247.461 45.7439H247.291L244.525 50.356H240.037L245.174 42.3677Z" fill="black"/>
<rect x="224.213" y="56.3667" width="30.5867" height="3.51333" fill="black"/>
</g>
<defs>
<linearGradient id="paint0_linear_1205_31634" x1="0" y1="0" x2="274" y2="90" gradientUnits="userSpaceOnUse">
<stop stop-color="white"/>
<stop offset="0.53125" stop-color="white" stop-opacity="0"/>
<stop offset="1" stop-color="white"/>
</linearGradient>
<clipPath id="clip0_1205_31634">
<rect width="274" height="90" fill="white"/>
</clipPath>
</defs>
</svg>
